<svg width="16" height="16" viewBox="0 0 16 16" fill="none" xmlns="http://www.w3.org/2000/svg">
<path fill-rule="evenodd" clip-rule="evenodd" d="M7.52992 3.52838C8.89487 2.16347 11.1078 2.16347 12.4727 3.52838C13.8377 4.8933 13.8377 7.10625 12.4727 8.4712L11.168 9.77593L10.2252 8.83312L11.5299 7.52839C12.3742 6.68413 12.3742 5.31541 11.5299 4.4712C10.6857 3.62698 9.31697 3.62698 8.47272 4.4712C8.47272 4.4712 8.47272 4.47119 8.47272 4.4712L7.16798 5.77593L6.22517 4.83312L7.52992 3.52838ZM10.4441 6.49979L6.50132 10.4426L5.55851 9.49979L9.50132 5.55698L10.4441 6.49979ZM5.77746 7.16646L4.47273 8.47119C4.47273 8.47119 4.47273 8.47119 4.47273 8.47119C3.62851 9.31544 3.6285 10.6841 4.47273 11.5284C5.31694 12.3726 6.68566 12.3726 7.52991 11.5284L8.83465 10.2236L9.77746 11.1665L8.47272 12.4712C7.10778 13.8361 4.89483 13.8362 3.52991 12.4712C2.165 11.1062 2.165 8.89334 3.52991 7.52839L4.83465 6.22365L5.77746 7.16646Z" fill="#044237"/>
</svg>
